{
    "asset" : {
        "generator" : "Khronos glTF Blender I/O v1.1.45",
        "version" : "2.0"
    },
    "scene" : 0,
    "scenes" : [
        {
            "name" : "pillar",
            "nodes" : [
                0
            ]
        }
    ],
    "nodes" : [
        {
            "mesh" : 0,
            "name" : "pilars"
        }
    ],
    "materials" : [
        {
            "doubleSided" : true,
            "emissiveFactor" : [
                0.002816448686644435,
                0.002816448686644435,
                0.002816448686644435
            ],
            "name" : "baked",
            "pbrMetallicRoughness" : {
                "baseColorTexture" : {
                    "index" : 0,
                    "texCoord" : 0
                },
                "metallicFactor" : 0,
                "roughnessFactor" : 0.7363636493682861
            }
        }
    ],
    "meshes" : [
        {
            "name" : "Cube.001",
            "primitives" : [
                {
                    "attributes" : {
                        "POSITION" : 0,
                        "NORMAL" : 1,
                        "TEXCOORD_0" : 2,
                        "TEXCOORD_1" : 3
                    },
                    "indices" : 4,
                    "material" : 0
                }
            ]
        }
    ],
    "textures" : [
        {
            "source" : 0
        }
    ],
    "images" : [
        {
            "mimeType" : "image/png",
            "name" : "bake2k",
            "uri" : "bake2k.png"
        }
    ],
    "accessors" : [
        {
            "bufferView" : 0,
            "componentType" : 5126,
            "count" : 2156,
            "max" : [
                281.8202819824219,
                630.447021484375,
                250.45822143554688
            ],
            "min" : [
                -262.87701416015625,
                -21.3276309967041,
                -279.7142028808594
            ],
            "type" : "VEC3"
        },
        {
            "bufferView" : 1,
            "componentType" : 5126,
            "count" : 2156,
            "type" : "VEC3"
        },
        {
            "bufferView" : 2,
            "componentType" : 5126,
            "count" : 2156,
            "type" : "VEC2"
        },
        {
            "bufferView" : 3,
            "componentType" : 5126,
            "count" : 2156,
            "type" : "VEC2"
        },
        {
            "bufferView" : 4,
            "componentType" : 5123,
            "count" : 3984,
            "type" : "SCALAR"
        }
    ],
    "bufferViews" : [
        {
            "buffer" : 0,
            "byteLength" : 25872,
            "byteOffset" : 0
        },
        {
            "buffer" : 0,
            "byteLength" : 25872,
            "byteOffset" : 25872
        },
        {
            "buffer" : 0,
            "byteLength" : 17248,
            "byteOffset" : 51744
        },
        {
            "buffer" : 0,
            "byteLength" : 17248,
            "byteOffset" : 68992
        },
        {
            "buffer" : 0,
            "byteLength" : 7968,
            "byteOffset" : 86240
        }
    ],
    "buffers" : [
        {
            "byteLength" : 94208,
            "uri" : "pillar.bin"
        }
    ]
}
